<mxfile host="app.diagrams.net" modified="2024-05-27T08:17:27.886Z" agent="Mozilla/5.0 (Windows NT 10.0; Win64; x64; rv:126.0) Gecko/20100101 Firefox/126.0" etag="wYv0Prgosv2wdTr5VRCh" version="24.4.8" type="device">
  <diagram name="Sivu-1" id="aiIqZ0GdBvuxicDNQyfY">
    <mxGraphModel dx="1509" dy="822" grid="1" gridSize="10" guides="1" tooltips="1" connect="1" arrows="1" fold="1" page="1" pageScale="1" pageWidth="1169" pageHeight="827" math="0" shadow="0">
      <root>
        <mxCell id="0" />
        <mxCell id="1" parent="0" />
        <mxCell id="vC6IVYC8q96_9GBPrNcq-114" style="edgeStyle=orthogonalEdgeStyle;rounded=0;orthogonalLoop=1;jettySize=auto;html=1;entryX=0.5;entryY=0;entryDx=0;entryDy=0;exitX=0.322;exitY=0.976;exitDx=0;exitDy=0;exitPerimeter=0;endArrow=open;endFill=0;dashed=1;" edge="1" parent="1" source="vC6IVYC8q96_9GBPrNcq-4" target="vC6IVYC8q96_9GBPrNcq-9">
          <mxGeometry relative="1" as="geometry">
            <mxPoint x="390" y="400" as="sourcePoint" />
          </mxGeometry>
        </mxCell>
        <mxCell id="vC6IVYC8q96_9GBPrNcq-115" style="edgeStyle=orthogonalEdgeStyle;rounded=0;orthogonalLoop=1;jettySize=auto;html=1;entryX=0.5;entryY=0;entryDx=0;entryDy=0;endArrow=open;endFill=0;dashed=1;" edge="1" parent="1" source="vC6IVYC8q96_9GBPrNcq-1" target="vC6IVYC8q96_9GBPrNcq-13">
          <mxGeometry relative="1" as="geometry" />
        </mxCell>
        <mxCell id="vC6IVYC8q96_9GBPrNcq-1" value="MainActivity" style="swimlane;fontStyle=1;align=center;verticalAlign=top;childLayout=stackLayout;horizontal=1;startSize=26;horizontalStack=0;resizeParent=1;resizeParentMax=0;resizeLast=0;collapsible=1;marginBottom=0;whiteSpace=wrap;html=1;" vertex="1" parent="1">
          <mxGeometry x="290" y="280" width="160" height="86" as="geometry" />
        </mxCell>
        <mxCell id="vC6IVYC8q96_9GBPrNcq-2" value="..." style="text;strokeColor=none;fillColor=none;align=left;verticalAlign=top;spacingLeft=4;spacingRight=4;overflow=hidden;rotatable=0;points=[[0,0.5],[1,0.5]];portConstraint=eastwest;whiteSpace=wrap;html=1;" vertex="1" parent="vC6IVYC8q96_9GBPrNcq-1">
          <mxGeometry y="26" width="160" height="26" as="geometry" />
        </mxCell>
        <mxCell id="vC6IVYC8q96_9GBPrNcq-3" value="" style="line;strokeWidth=1;fillColor=none;align=left;verticalAlign=middle;spacingTop=-1;spacingLeft=3;spacingRight=3;rotatable=0;labelPosition=right;points=[];portConstraint=eastwest;strokeColor=inherit;" vertex="1" parent="vC6IVYC8q96_9GBPrNcq-1">
          <mxGeometry y="52" width="160" height="8" as="geometry" />
        </mxCell>
        <mxCell id="vC6IVYC8q96_9GBPrNcq-4" value="..." style="text;strokeColor=none;fillColor=none;align=left;verticalAlign=top;spacingLeft=4;spacingRight=4;overflow=hidden;rotatable=0;points=[[0,0.5],[1,0.5]];portConstraint=eastwest;whiteSpace=wrap;html=1;" vertex="1" parent="vC6IVYC8q96_9GBPrNcq-1">
          <mxGeometry y="60" width="160" height="26" as="geometry" />
        </mxCell>
        <mxCell id="vC6IVYC8q96_9GBPrNcq-112" style="edgeStyle=orthogonalEdgeStyle;rounded=0;orthogonalLoop=1;jettySize=auto;html=1;entryX=0.5;entryY=0;entryDx=0;entryDy=0;endArrow=none;endFill=0;" edge="1" parent="1" source="vC6IVYC8q96_9GBPrNcq-5" target="vC6IVYC8q96_9GBPrNcq-1">
          <mxGeometry relative="1" as="geometry" />
        </mxCell>
        <mxCell id="vC6IVYC8q96_9GBPrNcq-5" value="SettingsActivity" style="swimlane;fontStyle=1;align=center;verticalAlign=top;childLayout=stackLayout;horizontal=1;startSize=26;horizontalStack=0;resizeParent=1;resizeParentMax=0;resizeLast=0;collapsible=1;marginBottom=0;whiteSpace=wrap;html=1;" vertex="1" parent="1">
          <mxGeometry x="290" y="130" width="160" height="86" as="geometry" />
        </mxCell>
        <mxCell id="vC6IVYC8q96_9GBPrNcq-6" value="..." style="text;strokeColor=none;fillColor=none;align=left;verticalAlign=top;spacingLeft=4;spacingRight=4;overflow=hidden;rotatable=0;points=[[0,0.5],[1,0.5]];portConstraint=eastwest;whiteSpace=wrap;html=1;" vertex="1" parent="vC6IVYC8q96_9GBPrNcq-5">
          <mxGeometry y="26" width="160" height="26" as="geometry" />
        </mxCell>
        <mxCell id="vC6IVYC8q96_9GBPrNcq-7" value="" style="line;strokeWidth=1;fillColor=none;align=left;verticalAlign=middle;spacingTop=-1;spacingLeft=3;spacingRight=3;rotatable=0;labelPosition=right;points=[];portConstraint=eastwest;strokeColor=inherit;" vertex="1" parent="vC6IVYC8q96_9GBPrNcq-5">
          <mxGeometry y="52" width="160" height="8" as="geometry" />
        </mxCell>
        <mxCell id="vC6IVYC8q96_9GBPrNcq-8" value="..." style="text;strokeColor=none;fillColor=none;align=left;verticalAlign=top;spacingLeft=4;spacingRight=4;overflow=hidden;rotatable=0;points=[[0,0.5],[1,0.5]];portConstraint=eastwest;whiteSpace=wrap;html=1;" vertex="1" parent="vC6IVYC8q96_9GBPrNcq-5">
          <mxGeometry y="60" width="160" height="26" as="geometry" />
        </mxCell>
        <mxCell id="vC6IVYC8q96_9GBPrNcq-9" value="CycleInfoComponent" style="swimlane;fontStyle=1;align=center;verticalAlign=top;childLayout=stackLayout;horizontal=1;startSize=26;horizontalStack=0;resizeParent=1;resizeParentMax=0;resizeLast=0;collapsible=1;marginBottom=0;whiteSpace=wrap;html=1;" vertex="1" parent="1">
          <mxGeometry x="230" y="480" width="160" height="86" as="geometry" />
        </mxCell>
        <mxCell id="vC6IVYC8q96_9GBPrNcq-10" value="..." style="text;strokeColor=none;fillColor=none;align=left;verticalAlign=top;spacingLeft=4;spacingRight=4;overflow=hidden;rotatable=0;points=[[0,0.5],[1,0.5]];portConstraint=eastwest;whiteSpace=wrap;html=1;" vertex="1" parent="vC6IVYC8q96_9GBPrNcq-9">
          <mxGeometry y="26" width="160" height="26" as="geometry" />
        </mxCell>
        <mxCell id="vC6IVYC8q96_9GBPrNcq-11" value="" style="line;strokeWidth=1;fillColor=none;align=left;verticalAlign=middle;spacingTop=-1;spacingLeft=3;spacingRight=3;rotatable=0;labelPosition=right;points=[];portConstraint=eastwest;strokeColor=inherit;" vertex="1" parent="vC6IVYC8q96_9GBPrNcq-9">
          <mxGeometry y="52" width="160" height="8" as="geometry" />
        </mxCell>
        <mxCell id="vC6IVYC8q96_9GBPrNcq-12" value="..." style="text;strokeColor=none;fillColor=none;align=left;verticalAlign=top;spacingLeft=4;spacingRight=4;overflow=hidden;rotatable=0;points=[[0,0.5],[1,0.5]];portConstraint=eastwest;whiteSpace=wrap;html=1;" vertex="1" parent="vC6IVYC8q96_9GBPrNcq-9">
          <mxGeometry y="60" width="160" height="26" as="geometry" />
        </mxCell>
        <mxCell id="vC6IVYC8q96_9GBPrNcq-13" value="CalendarComponent" style="swimlane;fontStyle=1;align=center;verticalAlign=top;childLayout=stackLayout;horizontal=1;startSize=26;horizontalStack=0;resizeParent=1;resizeParentMax=0;resizeLast=0;collapsible=1;marginBottom=0;whiteSpace=wrap;html=1;" vertex="1" parent="1">
          <mxGeometry x="460" y="410" width="160" height="86" as="geometry" />
        </mxCell>
        <mxCell id="vC6IVYC8q96_9GBPrNcq-14" value="..." style="text;strokeColor=none;fillColor=none;align=left;verticalAlign=top;spacingLeft=4;spacingRight=4;overflow=hidden;rotatable=0;points=[[0,0.5],[1,0.5]];portConstraint=eastwest;whiteSpace=wrap;html=1;" vertex="1" parent="vC6IVYC8q96_9GBPrNcq-13">
          <mxGeometry y="26" width="160" height="26" as="geometry" />
        </mxCell>
        <mxCell id="vC6IVYC8q96_9GBPrNcq-15" value="" style="line;strokeWidth=1;fillColor=none;align=left;verticalAlign=middle;spacingTop=-1;spacingLeft=3;spacingRight=3;rotatable=0;labelPosition=right;points=[];portConstraint=eastwest;strokeColor=inherit;" vertex="1" parent="vC6IVYC8q96_9GBPrNcq-13">
          <mxGeometry y="52" width="160" height="8" as="geometry" />
        </mxCell>
        <mxCell id="vC6IVYC8q96_9GBPrNcq-16" value="..." style="text;strokeColor=none;fillColor=none;align=left;verticalAlign=top;spacingLeft=4;spacingRight=4;overflow=hidden;rotatable=0;points=[[0,0.5],[1,0.5]];portConstraint=eastwest;whiteSpace=wrap;html=1;" vertex="1" parent="vC6IVYC8q96_9GBPrNcq-13">
          <mxGeometry y="60" width="160" height="26" as="geometry" />
        </mxCell>
        <mxCell id="vC6IVYC8q96_9GBPrNcq-17" value="SettingsPresenter" style="swimlane;fontStyle=1;align=center;verticalAlign=top;childLayout=stackLayout;horizontal=1;startSize=26;horizontalStack=0;resizeParent=1;resizeParentMax=0;resizeLast=0;collapsible=1;marginBottom=0;whiteSpace=wrap;html=1;" vertex="1" parent="1">
          <mxGeometry x="740" y="130" width="160" height="86" as="geometry" />
        </mxCell>
        <mxCell id="vC6IVYC8q96_9GBPrNcq-18" value="..." style="text;strokeColor=none;fillColor=none;align=left;verticalAlign=top;spacingLeft=4;spacingRight=4;overflow=hidden;rotatable=0;points=[[0,0.5],[1,0.5]];portConstraint=eastwest;whiteSpace=wrap;html=1;" vertex="1" parent="vC6IVYC8q96_9GBPrNcq-17">
          <mxGeometry y="26" width="160" height="26" as="geometry" />
        </mxCell>
        <mxCell id="vC6IVYC8q96_9GBPrNcq-19" value="" style="line;strokeWidth=1;fillColor=none;align=left;verticalAlign=middle;spacingTop=-1;spacingLeft=3;spacingRight=3;rotatable=0;labelPosition=right;points=[];portConstraint=eastwest;strokeColor=inherit;" vertex="1" parent="vC6IVYC8q96_9GBPrNcq-17">
          <mxGeometry y="52" width="160" height="8" as="geometry" />
        </mxCell>
        <mxCell id="vC6IVYC8q96_9GBPrNcq-20" value="..." style="text;strokeColor=none;fillColor=none;align=left;verticalAlign=top;spacingLeft=4;spacingRight=4;overflow=hidden;rotatable=0;points=[[0,0.5],[1,0.5]];portConstraint=eastwest;whiteSpace=wrap;html=1;" vertex="1" parent="vC6IVYC8q96_9GBPrNcq-17">
          <mxGeometry y="60" width="160" height="26" as="geometry" />
        </mxCell>
        <mxCell id="vC6IVYC8q96_9GBPrNcq-21" value="CycleInfoPresenter" style="swimlane;fontStyle=1;align=center;verticalAlign=top;childLayout=stackLayout;horizontal=1;startSize=26;horizontalStack=0;resizeParent=1;resizeParentMax=0;resizeLast=0;collapsible=1;marginBottom=0;whiteSpace=wrap;html=1;" vertex="1" parent="1">
          <mxGeometry x="740" y="414" width="160" height="86" as="geometry" />
        </mxCell>
        <mxCell id="vC6IVYC8q96_9GBPrNcq-22" value="..." style="text;strokeColor=none;fillColor=none;align=left;verticalAlign=top;spacingLeft=4;spacingRight=4;overflow=hidden;rotatable=0;points=[[0,0.5],[1,0.5]];portConstraint=eastwest;whiteSpace=wrap;html=1;" vertex="1" parent="vC6IVYC8q96_9GBPrNcq-21">
          <mxGeometry y="26" width="160" height="26" as="geometry" />
        </mxCell>
        <mxCell id="vC6IVYC8q96_9GBPrNcq-23" value="" style="line;strokeWidth=1;fillColor=none;align=left;verticalAlign=middle;spacingTop=-1;spacingLeft=3;spacingRight=3;rotatable=0;labelPosition=right;points=[];portConstraint=eastwest;strokeColor=inherit;" vertex="1" parent="vC6IVYC8q96_9GBPrNcq-21">
          <mxGeometry y="52" width="160" height="8" as="geometry" />
        </mxCell>
        <mxCell id="vC6IVYC8q96_9GBPrNcq-24" value="..." style="text;strokeColor=none;fillColor=none;align=left;verticalAlign=top;spacingLeft=4;spacingRight=4;overflow=hidden;rotatable=0;points=[[0,0.5],[1,0.5]];portConstraint=eastwest;whiteSpace=wrap;html=1;" vertex="1" parent="vC6IVYC8q96_9GBPrNcq-21">
          <mxGeometry y="60" width="160" height="26" as="geometry" />
        </mxCell>
        <mxCell id="vC6IVYC8q96_9GBPrNcq-25" value="CalendarPresenter" style="swimlane;fontStyle=1;align=center;verticalAlign=top;childLayout=stackLayout;horizontal=1;startSize=26;horizontalStack=0;resizeParent=1;resizeParentMax=0;resizeLast=0;collapsible=1;marginBottom=0;whiteSpace=wrap;html=1;" vertex="1" parent="1">
          <mxGeometry x="740" y="259" width="160" height="86" as="geometry" />
        </mxCell>
        <mxCell id="vC6IVYC8q96_9GBPrNcq-26" value="..." style="text;strokeColor=none;fillColor=none;align=left;verticalAlign=top;spacingLeft=4;spacingRight=4;overflow=hidden;rotatable=0;points=[[0,0.5],[1,0.5]];portConstraint=eastwest;whiteSpace=wrap;html=1;" vertex="1" parent="vC6IVYC8q96_9GBPrNcq-25">
          <mxGeometry y="26" width="160" height="26" as="geometry" />
        </mxCell>
        <mxCell id="vC6IVYC8q96_9GBPrNcq-27" value="" style="line;strokeWidth=1;fillColor=none;align=left;verticalAlign=middle;spacingTop=-1;spacingLeft=3;spacingRight=3;rotatable=0;labelPosition=right;points=[];portConstraint=eastwest;strokeColor=inherit;" vertex="1" parent="vC6IVYC8q96_9GBPrNcq-25">
          <mxGeometry y="52" width="160" height="8" as="geometry" />
        </mxCell>
        <mxCell id="vC6IVYC8q96_9GBPrNcq-28" value="..." style="text;strokeColor=none;fillColor=none;align=left;verticalAlign=top;spacingLeft=4;spacingRight=4;overflow=hidden;rotatable=0;points=[[0,0.5],[1,0.5]];portConstraint=eastwest;whiteSpace=wrap;html=1;" vertex="1" parent="vC6IVYC8q96_9GBPrNcq-25">
          <mxGeometry y="60" width="160" height="26" as="geometry" />
        </mxCell>
        <mxCell id="vC6IVYC8q96_9GBPrNcq-99" style="edgeStyle=orthogonalEdgeStyle;rounded=0;orthogonalLoop=1;jettySize=auto;html=1;entryX=0.5;entryY=1;entryDx=0;entryDy=0;endArrow=block;endFill=0;dashed=1;" edge="1" parent="1" source="vC6IVYC8q96_9GBPrNcq-29" target="vC6IVYC8q96_9GBPrNcq-98">
          <mxGeometry relative="1" as="geometry" />
        </mxCell>
        <mxCell id="vC6IVYC8q96_9GBPrNcq-29" value="CyclePredictionServiceImpl" style="swimlane;fontStyle=1;align=center;verticalAlign=top;childLayout=stackLayout;horizontal=1;startSize=26;horizontalStack=0;resizeParent=1;resizeParentMax=0;resizeLast=0;collapsible=1;marginBottom=0;whiteSpace=wrap;html=1;" vertex="1" parent="1">
          <mxGeometry x="1191" y="523" width="160" height="100" as="geometry" />
        </mxCell>
        <mxCell id="vC6IVYC8q96_9GBPrNcq-30" value="..." style="text;strokeColor=none;fillColor=none;align=left;verticalAlign=top;spacingLeft=4;spacingRight=4;overflow=hidden;rotatable=0;points=[[0,0.5],[1,0.5]];portConstraint=eastwest;whiteSpace=wrap;html=1;" vertex="1" parent="vC6IVYC8q96_9GBPrNcq-29">
          <mxGeometry y="26" width="160" height="26" as="geometry" />
        </mxCell>
        <mxCell id="vC6IVYC8q96_9GBPrNcq-31" value="" style="line;strokeWidth=1;fillColor=none;align=left;verticalAlign=middle;spacingTop=-1;spacingLeft=3;spacingRight=3;rotatable=0;labelPosition=right;points=[];portConstraint=eastwest;strokeColor=inherit;" vertex="1" parent="vC6IVYC8q96_9GBPrNcq-29">
          <mxGeometry y="52" width="160" height="8" as="geometry" />
        </mxCell>
        <mxCell id="vC6IVYC8q96_9GBPrNcq-32" value="&lt;div&gt;+ getNextPrediction(cycles)&lt;/div&gt;&lt;div&gt;- calculate prediction&lt;br&gt;&lt;/div&gt;" style="text;strokeColor=none;fillColor=none;align=left;verticalAlign=top;spacingLeft=4;spacingRight=4;overflow=hidden;rotatable=0;points=[[0,0.5],[1,0.5]];portConstraint=eastwest;whiteSpace=wrap;html=1;" vertex="1" parent="vC6IVYC8q96_9GBPrNcq-29">
          <mxGeometry y="60" width="160" height="40" as="geometry" />
        </mxCell>
        <mxCell id="vC6IVYC8q96_9GBPrNcq-33" value="UserData" style="swimlane;fontStyle=1;align=center;verticalAlign=top;childLayout=stackLayout;horizontal=1;startSize=26;horizontalStack=0;resizeParent=1;resizeParentMax=0;resizeLast=0;collapsible=1;marginBottom=0;whiteSpace=wrap;html=1;" vertex="1" parent="1">
          <mxGeometry x="1594" y="110" width="160" height="94" as="geometry" />
        </mxCell>
        <mxCell id="vC6IVYC8q96_9GBPrNcq-34" value="&lt;div&gt;- userName: String&lt;/div&gt;&lt;div&gt;- settings&lt;br&gt;&lt;/div&gt;" style="text;strokeColor=none;fillColor=none;align=left;verticalAlign=top;spacingLeft=4;spacingRight=4;overflow=hidden;rotatable=0;points=[[0,0.5],[1,0.5]];portConstraint=eastwest;whiteSpace=wrap;html=1;" vertex="1" parent="vC6IVYC8q96_9GBPrNcq-33">
          <mxGeometry y="26" width="160" height="34" as="geometry" />
        </mxCell>
        <mxCell id="vC6IVYC8q96_9GBPrNcq-35" value="" style="line;strokeWidth=1;fillColor=none;align=left;verticalAlign=middle;spacingTop=-1;spacingLeft=3;spacingRight=3;rotatable=0;labelPosition=right;points=[];portConstraint=eastwest;strokeColor=inherit;" vertex="1" parent="vC6IVYC8q96_9GBPrNcq-33">
          <mxGeometry y="60" width="160" height="8" as="geometry" />
        </mxCell>
        <mxCell id="vC6IVYC8q96_9GBPrNcq-36" value="+ getters/setters" style="text;strokeColor=none;fillColor=none;align=left;verticalAlign=top;spacingLeft=4;spacingRight=4;overflow=hidden;rotatable=0;points=[[0,0.5],[1,0.5]];portConstraint=eastwest;whiteSpace=wrap;html=1;" vertex="1" parent="vC6IVYC8q96_9GBPrNcq-33">
          <mxGeometry y="68" width="160" height="26" as="geometry" />
        </mxCell>
        <mxCell id="vC6IVYC8q96_9GBPrNcq-101" style="edgeStyle=orthogonalEdgeStyle;rounded=0;orthogonalLoop=1;jettySize=auto;html=1;entryX=0.5;entryY=0;entryDx=0;entryDy=0;endArrow=open;endFill=0;dashed=1;" edge="1" parent="1" source="vC6IVYC8q96_9GBPrNcq-37" target="vC6IVYC8q96_9GBPrNcq-98">
          <mxGeometry relative="1" as="geometry" />
        </mxCell>
        <mxCell id="vC6IVYC8q96_9GBPrNcq-106" style="edgeStyle=orthogonalEdgeStyle;rounded=0;orthogonalLoop=1;jettySize=auto;html=1;entryX=0;entryY=0.5;entryDx=0;entryDy=0;endArrow=open;endFill=0;dashed=1;" edge="1" parent="1" source="vC6IVYC8q96_9GBPrNcq-37" target="vC6IVYC8q96_9GBPrNcq-102">
          <mxGeometry relative="1" as="geometry" />
        </mxCell>
        <mxCell id="vC6IVYC8q96_9GBPrNcq-37" value="CycleServiceImpl" style="swimlane;fontStyle=1;align=center;verticalAlign=top;childLayout=stackLayout;horizontal=1;startSize=26;horizontalStack=0;resizeParent=1;resizeParentMax=0;resizeLast=0;collapsible=1;marginBottom=0;whiteSpace=wrap;html=1;" vertex="1" parent="1">
          <mxGeometry x="1191" y="259" width="160" height="140" as="geometry" />
        </mxCell>
        <mxCell id="vC6IVYC8q96_9GBPrNcq-38" value="&lt;div&gt;- cycles&lt;/div&gt;&lt;div&gt;- prediction&lt;/div&gt;&lt;div&gt;- cycleInfo&lt;br&gt;&lt;/div&gt;" style="text;strokeColor=none;fillColor=none;align=left;verticalAlign=top;spacingLeft=4;spacingRight=4;overflow=hidden;rotatable=0;points=[[0,0.5],[1,0.5]];portConstraint=eastwest;whiteSpace=wrap;html=1;" vertex="1" parent="vC6IVYC8q96_9GBPrNcq-37">
          <mxGeometry y="26" width="160" height="54" as="geometry" />
        </mxCell>
        <mxCell id="vC6IVYC8q96_9GBPrNcq-39" value="" style="line;strokeWidth=1;fillColor=none;align=left;verticalAlign=middle;spacingTop=-1;spacingLeft=3;spacingRight=3;rotatable=0;labelPosition=right;points=[];portConstraint=eastwest;strokeColor=inherit;" vertex="1" parent="vC6IVYC8q96_9GBPrNcq-37">
          <mxGeometry y="80" width="160" height="8" as="geometry" />
        </mxCell>
        <mxCell id="vC6IVYC8q96_9GBPrNcq-40" value="&lt;div&gt;+ getCycles()&lt;/div&gt;&lt;div&gt;+ getPrediction()&lt;/div&gt;&lt;div&gt;+ getCycleInfo()&lt;br&gt;&lt;/div&gt;" style="text;strokeColor=none;fillColor=none;align=left;verticalAlign=top;spacingLeft=4;spacingRight=4;overflow=hidden;rotatable=0;points=[[0,0.5],[1,0.5]];portConstraint=eastwest;whiteSpace=wrap;html=1;" vertex="1" parent="vC6IVYC8q96_9GBPrNcq-37">
          <mxGeometry y="88" width="160" height="52" as="geometry" />
        </mxCell>
        <mxCell id="vC6IVYC8q96_9GBPrNcq-45" value="CycleData" style="swimlane;fontStyle=1;align=center;verticalAlign=top;childLayout=stackLayout;horizontal=1;startSize=26;horizontalStack=0;resizeParent=1;resizeParentMax=0;resizeLast=0;collapsible=1;marginBottom=0;whiteSpace=wrap;html=1;" vertex="1" parent="1">
          <mxGeometry x="1594" y="490" width="160" height="86" as="geometry" />
        </mxCell>
        <mxCell id="vC6IVYC8q96_9GBPrNcq-46" value="- cycleData" style="text;strokeColor=none;fillColor=none;align=left;verticalAlign=top;spacingLeft=4;spacingRight=4;overflow=hidden;rotatable=0;points=[[0,0.5],[1,0.5]];portConstraint=eastwest;whiteSpace=wrap;html=1;" vertex="1" parent="vC6IVYC8q96_9GBPrNcq-45">
          <mxGeometry y="26" width="160" height="26" as="geometry" />
        </mxCell>
        <mxCell id="vC6IVYC8q96_9GBPrNcq-47" value="" style="line;strokeWidth=1;fillColor=none;align=left;verticalAlign=middle;spacingTop=-1;spacingLeft=3;spacingRight=3;rotatable=0;labelPosition=right;points=[];portConstraint=eastwest;strokeColor=inherit;" vertex="1" parent="vC6IVYC8q96_9GBPrNcq-45">
          <mxGeometry y="52" width="160" height="8" as="geometry" />
        </mxCell>
        <mxCell id="vC6IVYC8q96_9GBPrNcq-48" value="+ getters/setters" style="text;strokeColor=none;fillColor=none;align=left;verticalAlign=top;spacingLeft=4;spacingRight=4;overflow=hidden;rotatable=0;points=[[0,0.5],[1,0.5]];portConstraint=eastwest;whiteSpace=wrap;html=1;" vertex="1" parent="vC6IVYC8q96_9GBPrNcq-45">
          <mxGeometry y="60" width="160" height="26" as="geometry" />
        </mxCell>
        <mxCell id="vC6IVYC8q96_9GBPrNcq-89" style="edgeStyle=orthogonalEdgeStyle;rounded=0;orthogonalLoop=1;jettySize=auto;html=1;exitX=0;exitY=0.5;exitDx=0;exitDy=0;entryX=1;entryY=0.5;entryDx=0;entryDy=0;endArrow=block;endFill=0;dashed=1;" edge="1" parent="1" source="vC6IVYC8q96_9GBPrNcq-77" target="vC6IVYC8q96_9GBPrNcq-81">
          <mxGeometry relative="1" as="geometry" />
        </mxCell>
        <mxCell id="vC6IVYC8q96_9GBPrNcq-77" value="DataSourceImpl" style="swimlane;fontStyle=1;align=center;verticalAlign=top;childLayout=stackLayout;horizontal=1;startSize=26;horizontalStack=0;resizeParent=1;resizeParentMax=0;resizeLast=0;collapsible=1;marginBottom=0;whiteSpace=wrap;html=1;container=0;" vertex="1" parent="1">
          <mxGeometry x="1990.0047252747254" y="273" width="186.37" height="140" as="geometry" />
        </mxCell>
        <mxCell id="vC6IVYC8q96_9GBPrNcq-81" value="«interface»&lt;br&gt;&lt;b&gt;DataSource&lt;/b&gt;" style="html=1;whiteSpace=wrap;container=0;" vertex="1" parent="1">
          <mxGeometry x="1820" y="318" width="110" height="50" as="geometry" />
        </mxCell>
        <mxCell id="vC6IVYC8q96_9GBPrNcq-78" value="- db" style="text;strokeColor=none;fillColor=none;align=left;verticalAlign=top;spacingLeft=4;spacingRight=4;overflow=hidden;rotatable=0;points=[[0,0.5],[1,0.5]];portConstraint=eastwest;whiteSpace=wrap;html=1;" vertex="1" parent="1">
          <mxGeometry x="1990.0047252747254" y="299" width="186.37" height="26" as="geometry" />
        </mxCell>
        <mxCell id="vC6IVYC8q96_9GBPrNcq-79" value="" style="line;strokeWidth=1;fillColor=none;align=left;verticalAlign=middle;spacingTop=-1;spacingLeft=3;spacingRight=3;rotatable=0;labelPosition=right;points=[];portConstraint=eastwest;strokeColor=inherit;" vertex="1" parent="1">
          <mxGeometry x="1990.0047252747254" y="325" width="186.37" height="8" as="geometry" />
        </mxCell>
        <mxCell id="vC6IVYC8q96_9GBPrNcq-80" value="&lt;div&gt;+ getUserData(user)&lt;/div&gt;&lt;div&gt;+ saveUserData(data)&lt;/div&gt;&lt;div&gt;+ deleteUser(user)&lt;/div&gt;&lt;div&gt;+ truncateUser(user)&lt;br&gt;&lt;/div&gt;" style="text;strokeColor=none;fillColor=none;align=left;verticalAlign=top;spacingLeft=4;spacingRight=4;overflow=hidden;rotatable=0;points=[[0,0.5],[1,0.5]];portConstraint=eastwest;whiteSpace=wrap;html=1;" vertex="1" parent="1">
          <mxGeometry x="1990.0047252747254" y="333" width="186.37" height="80" as="geometry" />
        </mxCell>
        <mxCell id="vC6IVYC8q96_9GBPrNcq-94" style="edgeStyle=orthogonalEdgeStyle;rounded=0;orthogonalLoop=1;jettySize=auto;html=1;exitX=1;exitY=0.5;exitDx=0;exitDy=0;entryX=0;entryY=0.5;entryDx=0;entryDy=0;dashed=1;endArrow=open;endFill=0;" edge="1" parent="1" source="vC6IVYC8q96_9GBPrNcq-90" target="vC6IVYC8q96_9GBPrNcq-81">
          <mxGeometry relative="1" as="geometry" />
        </mxCell>
        <mxCell id="vC6IVYC8q96_9GBPrNcq-96" style="edgeStyle=orthogonalEdgeStyle;rounded=0;orthogonalLoop=1;jettySize=auto;html=1;entryX=0.5;entryY=0;entryDx=0;entryDy=0;endArrow=none;endFill=0;" edge="1" parent="1" source="vC6IVYC8q96_9GBPrNcq-90" target="vC6IVYC8q96_9GBPrNcq-45">
          <mxGeometry relative="1" as="geometry" />
        </mxCell>
        <mxCell id="vC6IVYC8q96_9GBPrNcq-90" value="DBServiceImpl" style="swimlane;fontStyle=1;align=center;verticalAlign=top;childLayout=stackLayout;horizontal=1;startSize=26;horizontalStack=0;resizeParent=1;resizeParentMax=0;resizeLast=0;collapsible=1;marginBottom=0;whiteSpace=wrap;html=1;" vertex="1" parent="1">
          <mxGeometry x="1594" y="248" width="160" height="190" as="geometry" />
        </mxCell>
        <mxCell id="vC6IVYC8q96_9GBPrNcq-91" value="..." style="text;strokeColor=none;fillColor=none;align=left;verticalAlign=top;spacingLeft=4;spacingRight=4;overflow=hidden;rotatable=0;points=[[0,0.5],[1,0.5]];portConstraint=eastwest;whiteSpace=wrap;html=1;" vertex="1" parent="vC6IVYC8q96_9GBPrNcq-90">
          <mxGeometry y="26" width="160" height="26" as="geometry" />
        </mxCell>
        <mxCell id="vC6IVYC8q96_9GBPrNcq-92" value="" style="line;strokeWidth=1;fillColor=none;align=left;verticalAlign=middle;spacingTop=-1;spacingLeft=3;spacingRight=3;rotatable=0;labelPosition=right;points=[];portConstraint=eastwest;strokeColor=inherit;" vertex="1" parent="vC6IVYC8q96_9GBPrNcq-90">
          <mxGeometry y="52" width="160" height="8" as="geometry" />
        </mxCell>
        <mxCell id="vC6IVYC8q96_9GBPrNcq-93" value="&lt;div&gt;+ getUser(user)&lt;/div&gt;&lt;div&gt;+ saveUser(data)&lt;/div&gt;&lt;div&gt;+ deleteUser(user)&lt;/div&gt;&lt;div&gt;+ resetUser(user)&lt;/div&gt;&lt;div&gt;+ getCycle()&lt;/div&gt;&lt;div&gt;+ getSettings()&lt;br&gt;&lt;/div&gt;" style="text;strokeColor=none;fillColor=none;align=left;verticalAlign=top;spacingLeft=4;spacingRight=4;overflow=hidden;rotatable=0;points=[[0,0.5],[1,0.5]];portConstraint=eastwest;whiteSpace=wrap;html=1;" vertex="1" parent="vC6IVYC8q96_9GBPrNcq-90">
          <mxGeometry y="60" width="160" height="130" as="geometry" />
        </mxCell>
        <mxCell id="vC6IVYC8q96_9GBPrNcq-95" style="rounded=0;orthogonalLoop=1;jettySize=auto;html=1;endArrow=none;endFill=0;entryX=0.501;entryY=0.987;entryDx=0;entryDy=0;entryPerimeter=0;" edge="1" parent="1" source="vC6IVYC8q96_9GBPrNcq-90" target="vC6IVYC8q96_9GBPrNcq-36">
          <mxGeometry relative="1" as="geometry">
            <mxPoint x="1730" y="220" as="targetPoint" />
          </mxGeometry>
        </mxCell>
        <mxCell id="vC6IVYC8q96_9GBPrNcq-100" style="edgeStyle=orthogonalEdgeStyle;rounded=0;orthogonalLoop=1;jettySize=auto;html=1;entryX=0;entryY=0.5;entryDx=0;entryDy=0;endArrow=none;endFill=0;dashed=1;startArrow=block;startFill=0;" edge="1" parent="1" source="vC6IVYC8q96_9GBPrNcq-97" target="vC6IVYC8q96_9GBPrNcq-38">
          <mxGeometry relative="1" as="geometry" />
        </mxCell>
        <mxCell id="vC6IVYC8q96_9GBPrNcq-97" value="«interface»&lt;br&gt;&lt;b&gt;CycleService&lt;/b&gt;" style="html=1;whiteSpace=wrap;container=0;" vertex="1" parent="1">
          <mxGeometry x="1020" y="287" width="110" height="50" as="geometry" />
        </mxCell>
        <mxCell id="vC6IVYC8q96_9GBPrNcq-98" value="«interface»&lt;br&gt;&lt;b&gt;CyclePredictionService&lt;/b&gt;" style="html=1;whiteSpace=wrap;container=0;" vertex="1" parent="1">
          <mxGeometry x="1196" y="438" width="150" height="50" as="geometry" />
        </mxCell>
        <mxCell id="vC6IVYC8q96_9GBPrNcq-102" value="«interface»&lt;br&gt;&lt;b&gt;DBService&lt;/b&gt;" style="html=1;whiteSpace=wrap;container=0;" vertex="1" parent="1">
          <mxGeometry x="1410" y="304" width="110" height="50" as="geometry" />
        </mxCell>
        <mxCell id="vC6IVYC8q96_9GBPrNcq-105" style="edgeStyle=orthogonalEdgeStyle;rounded=0;orthogonalLoop=1;jettySize=auto;html=1;entryX=-0.001;entryY=0.16;entryDx=0;entryDy=0;entryPerimeter=0;startArrow=block;startFill=0;endArrow=none;endFill=0;dashed=1;" edge="1" parent="1" source="vC6IVYC8q96_9GBPrNcq-102" target="vC6IVYC8q96_9GBPrNcq-93">
          <mxGeometry relative="1" as="geometry" />
        </mxCell>
        <mxCell id="vC6IVYC8q96_9GBPrNcq-107" style="edgeStyle=elbowEdgeStyle;rounded=0;orthogonalLoop=1;jettySize=auto;html=1;entryX=0;entryY=0.5;entryDx=0;entryDy=0;endArrow=open;endFill=0;dashed=1;" edge="1" parent="1" source="vC6IVYC8q96_9GBPrNcq-18" target="vC6IVYC8q96_9GBPrNcq-91">
          <mxGeometry relative="1" as="geometry">
            <Array as="points">
              <mxPoint x="1390" y="230" />
            </Array>
          </mxGeometry>
        </mxCell>
        <mxCell id="vC6IVYC8q96_9GBPrNcq-108" style="edgeStyle=orthogonalEdgeStyle;rounded=0;orthogonalLoop=1;jettySize=auto;html=1;entryX=0;entryY=0.25;entryDx=0;entryDy=0;dashed=1;endArrow=open;endFill=0;" edge="1" parent="1" source="vC6IVYC8q96_9GBPrNcq-26" target="vC6IVYC8q96_9GBPrNcq-97">
          <mxGeometry relative="1" as="geometry" />
        </mxCell>
        <mxCell id="vC6IVYC8q96_9GBPrNcq-109" style="edgeStyle=orthogonalEdgeStyle;rounded=0;orthogonalLoop=1;jettySize=auto;html=1;entryX=0;entryY=0.75;entryDx=0;entryDy=0;endArrow=open;endFill=0;dashed=1;" edge="1" parent="1" source="vC6IVYC8q96_9GBPrNcq-22" target="vC6IVYC8q96_9GBPrNcq-97">
          <mxGeometry relative="1" as="geometry" />
        </mxCell>
        <mxCell id="vC6IVYC8q96_9GBPrNcq-111" style="edgeStyle=elbowEdgeStyle;rounded=0;orthogonalLoop=1;jettySize=auto;html=1;entryX=0.5;entryY=1;entryDx=0;entryDy=0;endArrow=open;endFill=0;dashed=1;" edge="1" parent="1" source="vC6IVYC8q96_9GBPrNcq-10" target="vC6IVYC8q96_9GBPrNcq-21">
          <mxGeometry relative="1" as="geometry">
            <mxPoint x="870" y="540" as="targetPoint" />
            <Array as="points">
              <mxPoint x="820" y="530" />
            </Array>
          </mxGeometry>
        </mxCell>
        <mxCell id="vC6IVYC8q96_9GBPrNcq-113" style="edgeStyle=orthogonalEdgeStyle;rounded=0;orthogonalLoop=1;jettySize=auto;html=1;entryX=0;entryY=0.5;entryDx=0;entryDy=0;endArrow=open;endFill=0;dashed=1;" edge="1" parent="1" source="vC6IVYC8q96_9GBPrNcq-6" target="vC6IVYC8q96_9GBPrNcq-18">
          <mxGeometry relative="1" as="geometry" />
        </mxCell>
        <mxCell id="vC6IVYC8q96_9GBPrNcq-116" style="edgeStyle=orthogonalEdgeStyle;rounded=0;orthogonalLoop=1;jettySize=auto;html=1;entryX=0;entryY=0.5;entryDx=0;entryDy=0;endArrow=open;endFill=0;dashed=1;" edge="1" parent="1" source="vC6IVYC8q96_9GBPrNcq-14" target="vC6IVYC8q96_9GBPrNcq-26">
          <mxGeometry relative="1" as="geometry" />
        </mxCell>
      </root>
    </mxGraphModel>
  </diagram>
</mxfile>
